<svg width="20" height="20" viewBox="0 0 20 20" fill="none" xmlns="http://www.w3.org/2000/svg">
<path d="M15 6.66668H14.1667V5.00001C14.1667 2.70001 12.3 0.833344 10 0.833344C7.70004 0.833344 5.83337 2.70001 5.83337 5.00001V6.66668H5.00004C4.08337 6.66668 3.33337 7.41668 3.33337 8.33334V16.6667C3.33337 17.5833 4.08337 18.3333 5.00004 18.3333H15C15.9167 18.3333 16.6667 17.5833 16.6667 16.6667V8.33334C16.6667 7.41668 15.9167 6.66668 15 6.66668ZM10 14.1667C9.08337 14.1667 8.33337 13.4167 8.33337 12.5C8.33337 11.5833 9.08337 10.8333 10 10.8333C10.9167 10.8333 11.6667 11.5833 11.6667 12.5C11.6667 13.4167 10.9167 14.1667 10 14.1667ZM12.5834 6.66668H7.41671V5.00001C7.41671 3.57501 8.57504 2.41668 10 2.41668C11.425 2.41668 12.5834 3.57501 12.5834 5.00001V6.66668Z" fill="#A5B0C1"/>
</svg>
